<?xml version="1.0" encoding="UTF-8"?>
<svg width="200" height="200" viewBox="0 0 200 200" fill="none" xmlns="http://www.w3.org/2000/svg">
  <!-- Ceramic Container -->
  <path d="M60 50 C60 50, 70 60, 70 70 L70 160 C70 170, 60 180, 60 180 L140 180 C140 180, 130 170, 130 160 L130 70 C130 60, 140 50, 140 50 Z" fill="#F5F5F5" stroke="#E0E0E0" stroke-width="2"/>
  
  <!-- Ceramic Texture -->
  <path d="M75 80 L125 80" stroke="#E0E0E0" stroke-width="1" opacity="0.5"/>
  <path d="M75 100 L125 100" stroke="#E0E0E0" stroke-width="1" opacity="0.5"/>
  <path d="M75 120 L125 120" stroke="#E0E0E0" stroke-width="1" opacity="0.5"/>
  <path d="M75 140 L125 140" stroke="#E0E0E0" stroke-width="1" opacity="0.5"/>
  
  <!-- Ceramic Rim -->
  <path d="M58 50 L142 50" stroke="#E0E0E0" stroke-width="3" stroke-linecap="round"/>
  
  <!-- Decorative Pattern -->
  <path d="M80 90 Q100 85 120 90" stroke="#D4D4D4" stroke-width="1" fill="none"/>
  <path d="M80 130 Q100 125 120 130" stroke="#D4D4D4" stroke-width="1" fill="none"/>
</svg> 